<svg xmlns="http://www.w3.org/2000/svg" viewBox="0 0 1600 900" preserveAspectRatio="xMidYMid slice">
<defs><linearGradient id="k" x1="0" y1="0" x2="0" y2="1"><stop offset="0" stop-color="#a9c6d5"/><stop offset="1" stop-color="#eaf0f1"/></linearGradient>
<linearGradient id="s" x1="0" y1="0" x2="0" y2="1"><stop offset="0" stop-color="#2b5f7d"/><stop offset="1" stop-color="#0b2233"/></linearGradient></defs>
<rect width="1600" height="900" fill="url(#k)"/><circle cx="1180" cy="500" r="70" fill="#f3d27a" opacity=".85"/><rect y="620" width="1600" height="280" fill="url(#s)"/><path d="M0 650 Q 100 641 200 650 T 400 650 T 600 650 T 800 650 T 1000 650 T 1200 650 T 1400 650 T 1600 650" fill="none" stroke="#ffffff" stroke-opacity="0.18" stroke-width="2"/><path d="M0 692 Q 100 683 200 692 T 400 692 T 600 692 T 800 692 T 1000 692 T 1200 692 T 1400 692 T 1600 692" fill="none" stroke="#ffffff" stroke-opacity="0.16" stroke-width="2"/><path d="M0 734 Q 100 725 200 734 T 400 734 T 600 734 T 800 734 T 1000 734 T 1200 734 T 1400 734 T 1600 734" fill="none" stroke="#ffffff" stroke-opacity="0.14" stroke-width="2"/><path d="M0 776 Q 100 767 200 776 T 400 776 T 600 776 T 800 776 T 1000 776 T 1200 776 T 1400 776 T 1600 776" fill="none" stroke="#ffffff" stroke-opacity="0.12" stroke-width="2"/><path d="M0 818 Q 100 809 200 818 T 400 818 T 600 818 T 800 818 T 1000 818 T 1200 818 T 1400 818 T 1600 818" fill="none" stroke="#ffffff" stroke-opacity="0.10" stroke-width="2"/><path d="M0 860 Q 100 851 200 860 T 400 860 T 600 860 T 800 860 T 1000 860 T 1200 860 T 1400 860 T 1600 860" fill="none" stroke="#ffffff" stroke-opacity="0.08" stroke-width="2"/><path d="M280 600 L1280 600 L1210 670 L330 670 Z" fill="#0b2233"/><rect x="320" y="656" width="890" height="8" fill="#b52a24"/><rect x="560" y="480" width="110" height="120" fill="#e8eef0"/><rect x="570" y="450" width="90" height="30" fill="#d3dde1"/><rect x="572" y="500" width="14" height="14" fill="#0b2233"/><rect x="594" y="500" width="14" height="14" fill="#0b2233"/><rect x="616" y="500" width="14" height="14" fill="#0b2233"/><rect x="638" y="500" width="14" height="14" fill="#0b2233"/><rect x="608" y="400" width="6" height="50" fill="#0b2233"/><circle cx="560" cy="450" r="22" fill="#0b2233"/><path d="M528 560 Q560 470 592 560 Z" fill="#1f5fa8"/><circle cx="700" cy="460" r="22" fill="#0b2233"/><path d="M668 570 Q700 480 732 570 Z" fill="#b52a24"/><circle cx="840" cy="450" r="22" fill="#0b2233"/><path d="M808 560 Q840 470 872 560 Z" fill="#0b2233"/><circle cx="980" cy="460" r="22" fill="#0b2233"/><path d="M948 570 Q980 480 1012 570 Z" fill="#b98a1c"/></svg>