<svg xmlns="http://www.w3.org/2000/svg" viewBox="0 0 1600 900" preserveAspectRatio="xMidYMid slice">
<defs><linearGradient id="k" x1="0" y1="0" x2="0" y2="1"><stop offset="0" stop-color="#9dbccd"/><stop offset="1" stop-color="#e6eef0"/></linearGradient>
<linearGradient id="s" x1="0" y1="0" x2="0" y2="1"><stop offset="0" stop-color="#2b5f7d"/><stop offset="1" stop-color="#0b2233"/></linearGradient></defs>
<rect width="1600" height="900" fill="url(#k)"/><circle cx="1180" cy="500" r="70" fill="#f3d27a" opacity=".85"/><rect y="620" width="1600" height="280" fill="url(#s)"/><path d="M0 650 Q 100 641 200 650 T 400 650 T 600 650 T 800 650 T 1000 650 T 1200 650 T 1400 650 T 1600 650" fill="none" stroke="#ffffff" stroke-opacity="0.18" stroke-width="2"/><path d="M0 692 Q 100 683 200 692 T 400 692 T 600 692 T 800 692 T 1000 692 T 1200 692 T 1400 692 T 1600 692" fill="none" stroke="#ffffff" stroke-opacity="0.16" stroke-width="2"/><path d="M0 734 Q 100 725 200 734 T 400 734 T 600 734 T 800 734 T 1000 734 T 1200 734 T 1400 734 T 1600 734" fill="none" stroke="#ffffff" stroke-opacity="0.14" stroke-width="2"/><path d="M0 776 Q 100 767 200 776 T 400 776 T 600 776 T 800 776 T 1000 776 T 1200 776 T 1400 776 T 1600 776" fill="none" stroke="#ffffff" stroke-opacity="0.12" stroke-width="2"/><path d="M0 818 Q 100 809 200 818 T 400 818 T 600 818 T 800 818 T 1000 818 T 1200 818 T 1400 818 T 1600 818" fill="none" stroke="#ffffff" stroke-opacity="0.10" stroke-width="2"/><path d="M0 860 Q 100 851 200 860 T 400 860 T 600 860 T 800 860 T 1000 860 T 1200 860 T 1400 860 T 1600 860" fill="none" stroke="#ffffff" stroke-opacity="0.08" stroke-width="2"/><rect x="500" y="330" width="500" height="50" fill="#0b2233"/><rect x="530" y="380" width="22" height="230" fill="#22394b"/><rect x="650" y="380" width="22" height="230" fill="#22394b"/><rect x="830" y="380" width="22" height="230" fill="#22394b"/><rect x="950" y="380" width="22" height="230" fill="#22394b"/><rect x="720" y="150" width="14" height="180" fill="#b52a24"/><polygon points="700,330 754,330 727,150" fill="none" stroke="#b52a24" stroke-width="6"/><rect x="900" y="270" width="80" height="60" fill="#e8eef0"/><path d="M1100 600 L1480 600 L1410 650 L1150 650 Z" fill="#b52a24"/><rect x="1140" y="636" width="270" height="8" fill="#b52a24"/></svg>