<svg xmlns="http://www.w3.org/2000/svg" viewBox="0 0 1600 900" preserveAspectRatio="xMidYMid slice">
<defs><linearGradient id="k" x1="0" y1="0" x2="0" y2="1"><stop offset="0" stop-color="#c8d7de"/><stop offset="1" stop-color="#eef2f2"/></linearGradient>
<linearGradient id="s" x1="0" y1="0" x2="0" y2="1"><stop offset="0" stop-color="#2f6f8f"/><stop offset="1" stop-color="#123247"/></linearGradient></defs>
<rect width="1600" height="900" fill="url(#k)"/><rect y="640" width="1600" height="260" fill="url(#s)"/><path d="M0 670 Q 100 661 200 670 T 400 670 T 600 670 T 800 670 T 1000 670 T 1200 670 T 1400 670 T 1600 670" fill="none" stroke="#ffffff" stroke-opacity="0.18" stroke-width="2"/><path d="M0 712 Q 100 703 200 712 T 400 712 T 600 712 T 800 712 T 1000 712 T 1200 712 T 1400 712 T 1600 712" fill="none" stroke="#ffffff" stroke-opacity="0.16" stroke-width="2"/><path d="M0 754 Q 100 745 200 754 T 400 754 T 600 754 T 800 754 T 1000 754 T 1200 754 T 1400 754 T 1600 754" fill="none" stroke="#ffffff" stroke-opacity="0.14" stroke-width="2"/><path d="M0 796 Q 100 787 200 796 T 400 796 T 600 796 T 800 796 T 1000 796 T 1200 796 T 1400 796 T 1600 796" fill="none" stroke="#ffffff" stroke-opacity="0.12" stroke-width="2"/><path d="M0 838 Q 100 829 200 838 T 400 838 T 600 838 T 800 838 T 1000 838 T 1200 838 T 1400 838 T 1600 838" fill="none" stroke="#ffffff" stroke-opacity="0.10" stroke-width="2"/><path d="M0 880 Q 100 871 200 880 T 400 880 T 600 880 T 800 880 T 1000 880 T 1200 880 T 1400 880 T 1600 880" fill="none" stroke="#ffffff" stroke-opacity="0.08" stroke-width="2"/><g transform="translate(800 330)"><circle r="170" fill="none" stroke="#0b2233" stroke-width="8"/><circle r="120" fill="none" stroke="#0b2233" stroke-width="3" opacity=".5"/><polygon points="0,-150 26,0 0,150 -26,0" fill="#b52a24"/><polygon points="-150,0 0,-26 150,0 0,26" fill="#1f5fa8" opacity=".8"/></g><path d="M220 650 L1320 650 L1250 710 L270 710 Z" fill="#22394b"/><rect x="260" y="696" width="990" height="8" fill="#b52a24"/></svg>